<svg xmlns="http://www.w3.org/2000/svg" viewBox="0 0 1360.63 864.57"><defs><style>.cls-1{fill:#f9f9f9;}.cls-2,.cls-4{fill:#e55505;}.cls-3{fill:#282828;}.cls-4{font-size:76.59px;font-family:YuGothicUI-Semilight, Yu Gothic UI;}.cls-5{letter-spacing:-0.05em;}</style></defs><title>vizit-light</title><g id="Layer_1" data-name="Layer 1"><rect class="cls-1" y="418" width="1361" height="447"/><rect class="cls-2" x="1" y="402" width="1361" height="7"/><rect class="cls-1" x="-0.63" y="1" width="1361" height="417"/><path class="cls-3" d="M1102.37,204.1c-4.87,10.84-18.43,12.39-25.83,7.82-10.91-6.74-22.32-6.25-34.08-5.65a32.22,32.22,0,0,1-4.81-.46l-.15-1.34c3.81-.95,7.65-1.79,11.43-2.86,11.28-3.17,22.66-6.06,33.76-9.75,12.19-4.05,13.11-4,19.66,6.57Z"/><path class="cls-3" d="M793.35,316.85q-6.43,0-9.3-2.45T781.18,307a30.87,30.87,0,0,1,.85-6.25l4.23-20.28a45,45,0,0,1,2.37-7.94,14.28,14.28,0,0,1,3.38-5.07,11.46,11.46,0,0,1,4.9-2.62,27.38,27.38,0,0,1,6.93-.76h43.44l-3,14.54h-31.1a5.31,5.31,0,0,0-3.38.85,6.16,6.16,0,0,0-1.52,3.55l-1.86,9c-.11.57-.2,1-.25,1.35a5.92,5.92,0,0,0-.09,1q0,2.2,3.21,2.2H848.8l9-41.92a8.07,8.07,0,0,0,.17-1.86,2.7,2.7,0,0,0-.85-2.11,5,5,0,0,0-3.21-.76h-58l3.89-18.59h70q7.44,0,10.48,2.45t3,7.69a36,36,0,0,1-.85,6.59l-14.54,68.8Z"/><path class="cls-3" d="M1002.28,316.85,1015,256.5c.11-.45.2-.85.25-1.18a6.19,6.19,0,0,0,.09-1q0-2.54-4.23-2.54H985.72a6.36,6.36,0,0,0-3.89.93,5.53,5.53,0,0,0-1.69,3.3l-12.85,60.85H943.63L956.3,256.5c.11-.45.19-.85.25-1.18a6.28,6.28,0,0,0,.08-1q0-2.54-4.06-2.54H927.06a6,6,0,0,0-3.72.93,6.79,6.79,0,0,0-1.86,3.8L908.8,316.85H885.14l18.09-85.54H926l-2,9.3q6.09-9.29,16.73-9.3h28.57q6.42,0,9.64,2.2t3.38,7.1a27.79,27.79,0,0,1,7.78-7.1,18.62,18.62,0,0,1,9.3-2.2H1028q6.76,0,10,2.45t3.21,8a30.43,30.43,0,0,1-.68,6.25l-14.54,68.8Z"/><path class="cls-3" d="M1044.2,316.85l18.09-85.54H1086l-18.09,85.54Z"/><path class="cls-2" d="M1093,171.78c-.06-1.12-2.9-2.66-4.71-3-2.76-.54-5.72-.07-8.58-.28-13.6-1-27.66-.41-40.72-3.49-43-10.13-85.72-21.25-128.34-32.68-41.44-11.12-83.19-20.47-126.22-24.25l-31.11-2.75-42.55.25c-8.75.87-17.5,1.8-26.26,2.6a231.39,231.39,0,0,0-103.93,35.33c-21.19,13.37-43.48,24.71-68.91,29.71-21.8,4.29-43.94,4.52-66,5-40.17.91-79.73,5.28-118.37,16-18.43,5.12-35.29,13.29-52,21.85-2.35,1.2-4.72,2.36-7.08,3.52l-1.33,4.49,0,0h0C276.74,219.9,298,210,308,206.64c39.05-13.28,79.89-16.75,121-17.77,44.08-1.09,88.22-.64,132.09-5.88,16.58-2,33.25-3.71,48.89-9.63a46,46,0,0,0,11.8-7c3.24-2.55,4.09-6.7,1.73-9.86a10.6,10.6,0,0,0-7.85-3.45,73.14,73.14,0,0,0-16.16,3.26c-6.88,2.09-13.47,5-20.31,7.21a31.27,31.27,0,0,1-6.54,1.06,1.82,1.82,0,0,1-1.84-2.76c3.3-5,7.66-7.86,12.22-10.37a272.27,272.27,0,0,1,114.31-33.62c33.75-2.26,67.16.4,100.41,5.73,41.86,6.71,82.49,17.63,122.41,31,3,1,3.41,2.46,2.89,5-1.35,6.49-9.07,13.35-17.29,14q-58,4.93-116.12,9.4c-35.7,2.76-71.48,5.23-107.17,8-1.45.11-3,.27-4.46.42h-.54q-13.17,0-19.37,5.34t-8.44,16.51l-7,33.53a22.68,22.68,0,0,0-.75,5.46,11.39,11.39,0,0,0,3.85,9.06q3.85,3.35,12.29,3.35h67.3q5,0,5,3.23a6.51,6.51,0,0,1-.25,2l-2.73,12.42q-.74,3.48-2.11,4.72T720,288.23H638.81a6.1,6.1,0,0,0-6,4.86L629.4,309.7a6.1,6.1,0,0,0,6,7.33h97.31q13.16,0,19.37-5.34t8.69-16.51l7.45-34.77q.24-1.24.37-2.48t.12-2.48a11.8,11.8,0,0,0-3.85-9.19q-3.85-3.48-12.54-3.48h-68q-5.21,0-5.22-4a7.51,7.51,0,0,1,.25-2.23l2.23-10.43q.75-3.73,2.48-5.21t5.71-1.49l341.64.28a6.1,6.1,0,0,0,2.8-11.52l-21-10.83c22.12-1.55,43.72-5.93,64.28-14.48a100.2,100.2,0,0,0,12.66-5.91A6.7,6.7,0,0,0,1093,171.78Zm-73.26,11.09c-6.42,3.1-14.64,2.85-21.61,4.1-4.49.81-9.77,3.09-10.2,8.95-.26,3.54,5.63,4.85,2.2,7-3.6,2.29-14.74,1.16-18.86,1.16h-19l-39.48,0q-30.84,0-61.67,0c-12.17,0-24.34-.09-36.5-.31-5.86-.1-16.55.26-22.4-.09-2.38-.14-18.4.61-15.89-3.17,1.32-2,20.75-3.31,22.73-3.56,6.78-.84,16.14-1.22,23-1.72,12.13-.9,24.27-1.55,36.41-2.26q19.66-1.16,39.31-2.39c10.54-.67,24.6.48,34.11-5.13,2.78-1.64,18-20.42,15.71-22.74,0,0,0,0,0,0l.09,0c1.43.3,28.86,6.88,28.75,6.85l-.24,0c10,2,19.71,5.15,29.65,7.3,3,.65,5.36,1.07,8.35,1.71.7.15,7.84,1.09,8.19,1.69C1023.28,181.69,1021.62,182,1019.79,182.87Z"/><path class="cls-3" d="M255.3,317.69q-6.43,0-9.3-2.45t-2.87-7.35a30.87,30.87,0,0,1,.85-6.25l4.23-20.28a45,45,0,0,1,2.37-7.94,14.28,14.28,0,0,1,3.38-5.07,11.46,11.46,0,0,1,4.9-2.62,27.38,27.38,0,0,1,6.93-.76h43.44l-3,14.54h-31.1a5.31,5.31,0,0,0-3.38.85,6.16,6.16,0,0,0-1.52,3.55l-1.86,9c-.11.57-.2,1-.25,1.35a6,6,0,0,0-.08,1q0,2.2,3.21,2.2h39.56l9-41.92a8.1,8.1,0,0,0,.17-1.86,2.7,2.7,0,0,0-.85-2.11,5,5,0,0,0-3.21-.76h-58l3.89-18.59h70q7.44,0,10.48,2.45t3,7.69a36,36,0,0,1-.85,6.59l-14.54,68.8Z"/><path class="cls-3" d="M415,317.69l1.86-9.13a20.17,20.17,0,0,1-7.18,7,19.69,19.69,0,0,1-9.38,2.11H363.14q-6.76,0-10.06-2.37t-3.3-7.95a31.32,31.32,0,0,1,.85-6.42l14.54-68.8h23.67L376,292.51a14.63,14.63,0,0,0-.34,2.2q0,2.71,4.06,2.7h34a6,6,0,0,0,3.89-1,7.34,7.34,0,0,0,1.86-3.89l12.85-60.35h23.67l-18.09,85.54Z"/><path class="cls-3" d="M471.33,317.69q-7.1,0-10.23-2.45T458,307.55a35.87,35.87,0,0,1,.85-6.59l19.61-92.63h23.67L497,232.16h20.62l-3.89,18.59H493.14l-9.3,43.78a14.63,14.63,0,0,0-.34,2.2q0,2.37,3.72,2.37h15.55l-3.89,18.59Z"/><path class="cls-3" d="M528.8,317.69q-7.1,0-10.23-2.45t-3.13-7.69a35.83,35.83,0,0,1,.85-6.59l11-52.06q1.86-8.62,6.17-12.68t13.44-4.06H605q7.44,0,10.48,2.45t3,7.69a36,36,0,0,1-.85,6.59l-11,52.06q-1.86,8.62-6.17,12.68T587,317.69Zm63.39-60.35a17,17,0,0,0,.34-2q0-2.7-4.56-2.7H554.5a6,6,0,0,0-3.8.93q-1.1.93-1.61,3.8l-7.27,34.82c-.11.45-.2.85-.25,1.18a6,6,0,0,0-.08,1q0,2.37,3.72,2.37h33.47a7.43,7.43,0,0,0,4.39-1,5.63,5.63,0,0,0,1.86-3.55Z"/><rect class="cls-2" x="0.37" y="402" width="1361" height="7"/></g><g id="Layer_2" data-name="Layer 2"><text class="cls-4" transform="translate(318 662.66)">ww<tspan class="cls-5" x="107.18" y="0">w</tspan><tspan x="156.95" y="0">.yourwebsite.com</tspan></text></g></svg>