<svg xmlns="http://www.w3.org/2000/svg" viewBox="0 0 1360.63 864.57"><defs><style>.cls-1{fill:#282828;}.cls-2{fill:#e5e5e5;}.cls-3{fill:#e55505;}.cls-4{font-size:65px;font-family:YuGothicUI-Regular, Yu Gothic UI;}.cls-4,.cls-7{fill:#fff;}.cls-5{letter-spacing:-0.02em;}.cls-6{font-size:30px;}.cls-6,.cls-7{font-family:YuGothicUI-Light, Yu Gothic UI;}.cls-7{font-size:28px;}.cls-8{letter-spacing:1.3em;}.cls-9{letter-spacing:-0.06em;}</style></defs><title>vizit-semi-light</title><g id="Layer_1" data-name="Layer 1"><rect class="cls-1" y="418" width="1361" height="447"/><rect class="cls-2" y="1" width="1361" height="417"/><path d="M1103,204.1c-4.87,10.84-18.43,12.39-25.83,7.82-10.91-6.74-22.32-6.25-34.08-5.65a32.22,32.22,0,0,1-4.81-.46l-.15-1.34c3.81-.95,7.65-1.79,11.43-2.86,11.28-3.17,22.66-6.06,33.76-9.75,12.19-4.05,13.11-4,19.66,6.57Z"/><path class="cls-1" d="M794,316.85q-6.43,0-9.3-2.45T781.81,307a30.87,30.87,0,0,1,.85-6.25l4.23-20.28a45,45,0,0,1,2.37-7.94,14.28,14.28,0,0,1,3.38-5.07,11.46,11.46,0,0,1,4.9-2.62,27.38,27.38,0,0,1,6.93-.76H847.9l-3,14.54h-31.1a5.31,5.31,0,0,0-3.38.85,6.16,6.16,0,0,0-1.52,3.55L807,292c-.11.57-.2,1-.25,1.35a5.92,5.92,0,0,0-.09,1q0,2.2,3.21,2.2h39.56l9-41.92a8.07,8.07,0,0,0,.17-1.86,2.7,2.7,0,0,0-.85-2.11,5,5,0,0,0-3.21-.76h-58l3.89-18.59h70q7.44,0,10.48,2.45t3,7.69a36,36,0,0,1-.85,6.59l-14.54,68.8Z"/><path class="cls-1" d="M1002.91,316.85l12.68-60.35c.11-.45.2-.85.25-1.18a6.19,6.19,0,0,0,.09-1q0-2.54-4.23-2.54H986.35a6.36,6.36,0,0,0-3.89.93,5.53,5.53,0,0,0-1.69,3.3l-12.85,60.85H944.26l12.68-60.35c.11-.45.19-.85.25-1.18a6.28,6.28,0,0,0,.08-1q0-2.54-4.06-2.54H927.69a6,6,0,0,0-3.72.93,6.79,6.79,0,0,0-1.86,3.8l-12.68,60.35H885.77l18.09-85.54h22.82l-2,9.3q6.09-9.29,16.73-9.3H970q6.42,0,9.64,2.2t3.38,7.1a27.79,27.79,0,0,1,7.78-7.1,18.62,18.62,0,0,1,9.3-2.2h28.57q6.76,0,10,2.45t3.21,8a30.43,30.43,0,0,1-.68,6.25l-14.54,68.8Z"/><path class="cls-1" d="M1044.83,316.85l18.09-85.54h23.67l-18.09,85.54Z"/><path class="cls-1" d="M255.93,317.69q-6.43,0-9.3-2.45t-2.87-7.35a30.87,30.87,0,0,1,.85-6.25l4.23-20.28a45,45,0,0,1,2.37-7.94,14.28,14.28,0,0,1,3.38-5.07,11.46,11.46,0,0,1,4.9-2.62,27.38,27.38,0,0,1,6.93-.76h43.44l-3,14.54H275.7a5.31,5.31,0,0,0-3.38.85,6.16,6.16,0,0,0-1.52,3.55l-1.86,9c-.11.57-.2,1-.25,1.35a6,6,0,0,0-.08,1q0,2.2,3.21,2.2h39.56l9-41.92a8.1,8.1,0,0,0,.17-1.86,2.7,2.7,0,0,0-.85-2.11,5,5,0,0,0-3.21-.76h-58l3.89-18.59h70q7.44,0,10.48,2.45t3,7.69a36,36,0,0,1-.85,6.59l-14.54,68.8Z"/><path class="cls-1" d="M415.67,317.69l1.86-9.13a20.17,20.17,0,0,1-7.18,7,19.69,19.69,0,0,1-9.38,2.11H363.77q-6.76,0-10.06-2.37t-3.3-7.95a31.32,31.32,0,0,1,.85-6.42l14.54-68.8h23.67l-12.85,60.35a14.63,14.63,0,0,0-.34,2.2q0,2.71,4.06,2.7h34a6,6,0,0,0,3.89-1,7.34,7.34,0,0,0,1.86-3.89l12.85-60.35h23.67l-18.09,85.54Z"/><path class="cls-1" d="M472,317.69q-7.1,0-10.23-2.45t-3.13-7.69a35.87,35.87,0,0,1,.85-6.59l19.61-92.63h23.67l-5.07,23.83h20.62l-3.89,18.59H493.77l-9.3,43.78a14.63,14.63,0,0,0-.34,2.2q0,2.37,3.72,2.37H503.4l-3.89,18.59Z"/><path class="cls-1" d="M529.43,317.69q-7.1,0-10.23-2.45t-3.13-7.69a35.83,35.83,0,0,1,.85-6.59l11-52.06q1.86-8.62,6.17-12.68t13.44-4.06h58.15q7.44,0,10.48,2.45t3,7.69a36,36,0,0,1-.85,6.59l-11,52.06q-1.86,8.62-6.17,12.68t-13.61,4.06Zm63.39-60.35a17,17,0,0,0,.34-2q0-2.7-4.56-2.7H555.13a6,6,0,0,0-3.8.93q-1.1.93-1.61,3.8l-7.27,34.82c-.11.45-.2.85-.25,1.18a6,6,0,0,0-.08,1q0,2.37,3.72,2.37H579.3a7.43,7.43,0,0,0,4.39-1,5.63,5.63,0,0,0,1.86-3.55Z"/><path class="cls-3" d="M1093.68,171.78c-.06-1.12-2.9-2.66-4.71-3-2.76-.54-5.72-.07-8.58-.28-13.6-1-27.66-.41-40.72-3.49-43-10.13-85.72-21.25-128.34-32.68-41.44-11.12-83.19-20.47-126.22-24.25L754,105.32l-42.55.25c-8.75.87-17.5,1.8-26.26,2.6a231.39,231.39,0,0,0-103.93,35.33c-21.19,13.37-43.48,24.71-68.91,29.71-21.8,4.29-43.94,4.52-66,5-40.17.91-79.73,5.28-118.37,16-18.43,5.12-35.29,13.29-52,21.85-2.35,1.2-4.72,2.36-7.08,3.52l-1.33,4.49,0,0h0c9.82-4.23,31.11-14.07,41.12-17.48,39.05-13.28,79.89-16.75,121-17.77,44.08-1.09,88.22-.64,132.09-5.88,16.58-2,33.25-3.71,48.89-9.63a46,46,0,0,0,11.8-7c3.24-2.55,4.09-6.7,1.73-9.86a10.6,10.6,0,0,0-7.85-3.45,73.14,73.14,0,0,0-16.16,3.26c-6.88,2.09-13.47,5-20.31,7.21a31.27,31.27,0,0,1-6.54,1.06,1.82,1.82,0,0,1-1.84-2.76c3.3-5,7.66-7.86,12.22-10.37A272.27,272.27,0,0,1,698,117.79c33.75-2.26,67.16.4,100.41,5.73,41.86,6.71,82.49,17.63,122.41,31,3,1,3.41,2.46,2.89,5-1.35,6.49-9.07,13.35-17.29,14q-58,4.93-116.12,9.4c-35.7,2.76-71.48,5.23-107.17,8-1.45.11-3,.27-4.46.42h-.54q-13.17,0-19.37,5.34t-8.44,16.51l-7,33.53a22.68,22.68,0,0,0-.75,5.46,11.39,11.39,0,0,0,3.85,9.06q3.85,3.35,12.29,3.35h67.3q5,0,5,3.23a6.51,6.51,0,0,1-.25,2l-2.73,12.42q-.74,3.48-2.11,4.72t-5.34,1.24H639.44a6.1,6.1,0,0,0-6,4.86L630,309.7a6.1,6.1,0,0,0,6,7.33h97.31q13.16,0,19.37-5.34t8.69-16.51l7.45-34.77q.24-1.24.37-2.48t.12-2.48a11.8,11.8,0,0,0-3.85-9.19q-3.85-3.48-12.54-3.48h-68q-5.21,0-5.22-4a7.51,7.51,0,0,1,.25-2.23l2.23-10.43q.75-3.73,2.48-5.21t5.71-1.49l341.64.28a6.1,6.1,0,0,0,2.8-11.52l-21-10.83c22.12-1.55,43.72-5.93,64.28-14.48a100.2,100.2,0,0,0,12.66-5.91A6.7,6.7,0,0,0,1093.68,171.78Zm-73.26,11.09c-6.42,3.1-14.64,2.85-21.61,4.1-4.49.81-9.77,3.09-10.2,8.95-.26,3.54,5.63,4.85,2.2,7-3.6,2.29-14.74,1.16-18.86,1.16h-19l-39.48,0q-30.84,0-61.67,0c-12.17,0-24.34-.09-36.5-.31-5.86-.1-16.55.26-22.4-.09-2.38-.14-18.4.61-15.89-3.17,1.32-2,20.75-3.31,22.73-3.56,6.78-.84,16.14-1.22,23-1.72,12.13-.9,24.27-1.55,36.41-2.26q19.66-1.16,39.31-2.39c10.54-.67,24.6.48,34.11-5.13,2.78-1.64,18-20.42,15.71-22.74,0,0,0,0,0,0l.09,0c1.43.3,28.86,6.88,28.75,6.85l-.24,0c10,2,19.71,5.15,29.65,7.3,3,.65,5.36,1.07,8.35,1.71.7.15,7.84,1.09,8.19,1.69C1023.91,181.69,1022.25,182,1020.42,182.87Z"/><rect class="cls-3" x="1" y="402" width="1361" height="7"/><rect class="cls-3" x="84" y="635" width="488" height="7"/><text class="cls-4" transform="translate(214.77 569.14)">Ime <tspan class="cls-5" x="125.08" y="0">P</tspan><tspan x="160.5" y="0">rezime</tspan><tspan class="cls-6"><tspan x="0" y="36" xml:space="preserve">                                   CEO</tspan></tspan></text><rect class="cls-3" x="485.5" y="636.5" width="388" height="7" transform="translate(39.5 1319.5) rotate(-90)"/><path class="cls-3" d="M819,582.69a3.82,3.82,0,0,1-1.26,2,7.66,7.66,0,0,1-4.46,2.27,8.46,8.46,0,0,1-2.63-.11,21,21,0,0,1-7.77-3.14A39.65,39.65,0,0,1,794.3,576a27.2,27.2,0,0,1-3.73-5.31,13.34,13.34,0,0,1-1.61-6.7,8.19,8.19,0,0,1,1.54-4.75,7.17,7.17,0,0,1,1.91-1.87,2.27,2.27,0,0,1,2.91.35q2.31,2.27,4.59,4.59a2.4,2.4,0,0,1-.1,3.51c-.67.69-1.35,1.36-2,2a1.11,1.11,0,0,1-.23.15A22,22,0,0,0,808,578.47c.7-.7,1.41-1.42,2.13-2.14a3.59,3.59,0,0,1,.63-.52,2.34,2.34,0,0,1,3,.33c1.53,1.51,3,3,4.57,4.56A2.9,2.9,0,0,1,819,582Z"/><path class="cls-3" d="M787.88,637.07l9.46,6.58c1,.67,1.93,1.35,2.92,2a3.63,3.63,0,0,0,2.85.75,6.27,6.27,0,0,0,1.91-.8c2-1.3,3.91-2.66,5.85-4,2.41-1.68,4.85-3.33,7.22-5.08a7,7,0,0,0,2.86-4.2,3.48,3.48,0,0,0-.22-2.42,3.32,3.32,0,0,0-3.16-1.87H787.76a8.22,8.22,0,0,0-1,.06,2.45,2.45,0,0,0-1.72.95,4,4,0,0,0-.51,4.3A9.55,9.55,0,0,0,787.88,637.07Z"/><path class="cls-3" d="M808.8,646.21a19.73,19.73,0,0,1-3.76,2.32,5.68,5.68,0,0,1-3.58.43,10.13,10.13,0,0,1-3.29-1.5c-.81-.55-1.61-1.13-2.36-1.67l-10.45,10.45a3.32,3.32,0,0,0,2.32.77h29.84c.19,0,.39,0,.58,0a3,3,0,0,0,1.76-.75l-10.45-10.45Z"/><path class="cls-3" d="M793,643.8c-2.2-1.51-4.4-3-6.58-4.53-.79-.55-1.52-1.19-2.25-1.77v15.65l9.14-9.13Z"/><path class="cls-3" d="M821,653.13V637.46c-2.83,2.53-6.15,4.33-9.11,6.57Z"/><path class="cls-3" d="M802.34,688.56h2.22a2.86,2.86,0,0,0,.32.06,15.63,15.63,0,0,1,8,2.66c3.82,2.64,6.21,6.16,6.45,10.92A12.26,12.26,0,0,1,816.6,711a8.58,8.58,0,0,1-5.39,3.28,5.27,5.27,0,0,1-3.9-.62,13.59,13.59,0,0,1-1.38-1.22l-.31.33a5.47,5.47,0,0,1-6.09,1.28,7,7,0,0,1-3.89-4.14,11,11,0,0,1-.17-7.52,7.65,7.65,0,0,1,4.73-5.07,5.8,5.8,0,0,1,5.78.76l.25.16c.08-.27.16-.49.2-.73s.15-.27.36-.26h4.07c0,.19,0,.36,0,.51q-.15,1.21-.3,2.43c-.29,2.41-.6,4.81-.88,7.22a18.09,18.09,0,0,0-.1,2.28.69.69,0,0,0,.84.73,4.07,4.07,0,0,0,1.37-.36,5.66,5.66,0,0,0,2.29-2.4,9.62,9.62,0,0,0,.89-6.84,10,10,0,0,0-5-6.8,12.58,12.58,0,0,0-9.42-1.33,12,12,0,0,0-7.1,4.72,12.21,12.21,0,0,0-2.37,5.92,14.55,14.55,0,0,0,.1,4.52,12.69,12.69,0,0,0,2.32,5.3A11,11,0,0,0,798,716.9a16,16,0,0,0,8.59.88,21.51,21.51,0,0,0,5-1.43,2.89,2.89,0,0,1,1.16-.25,2,2,0,0,1,1.91,1.7,2.06,2.06,0,0,1-1.3,2.22,23.74,23.74,0,0,1-13.83,1.58,16.4,16.4,0,0,1-13.37-15.76,17,17,0,0,1,1-6.56,17,17,0,0,1,13.1-10.47C801,688.71,801.68,688.64,802.34,688.56Zm-2.8,17.72a5.45,5.45,0,0,0,.62,2.48,2.05,2.05,0,0,0,1.6,1.25,2.93,2.93,0,0,0,2.42-.92,5.68,5.68,0,0,0,1.66-4.94,3.08,3.08,0,0,0-2-2.59,2.71,2.71,0,0,0-3.41,1.12A6.08,6.08,0,0,0,799.54,706.28Z"/></g><g id="Layer_2" data-name="Layer 2"><text class="cls-7" transform="translate(237 697)">Viljevski put 6, 10000 Zagreb<tspan class="cls-8" x="0" y="33.6" xml:space="preserve">				</tspan><tspan x="176.73" y="33.6" xml:space="preserve">       Hrvatska</tspan></text><text class="cls-7" transform="translate(835 581)">+385 91 9736668</text><text class="cls-7" transform="translate(843 714)">ww<tspan class="cls-9" x="37.9" y="0">w</tspan><tspan x="55.3" y="0">.yourwebsite.com</tspan></text><text class="cls-7" transform="translate(843 649)">contact@website.com</text></g></svg>