<svg xmlns="http://www.w3.org/2000/svg" viewBox="0 0 1509.25 373.02"><defs><style>.cls-1{fill:#282828;}.cls-2{fill:#fff;}.cls-3{fill:#e55505;}</style></defs><title>original-cropedsvg</title><g id="Layer_2" data-name="Layer 2"><g id="Layer_1-2" data-name="Layer 1"><path d="M1509.25,173.51c-8.55,19-32.38,21.77-45.37,13.74-19.17-11.85-39.2-11-59.86-9.93-2.79.14-5.63-.51-8.44-.8l-.25-2.36c6.7-1.66,13.44-3.15,20.08-5,19.81-5.57,39.79-10.65,59.31-17.13,21.42-7.12,23-7.11,34.54,11.55Z"/><path class="cls-1" d="M966.46,371.54q-11.29,0-16.33-4.31t-5-12.91a54.21,54.21,0,0,1,1.48-11L954,307.7a79.08,79.08,0,0,1,4.16-14,25.09,25.09,0,0,1,5.94-8.91,20.12,20.12,0,0,1,8.61-4.6,48.08,48.08,0,0,1,12.17-1.34h76.31l-5.35,25.53H1001.2q-4.16,0-5.94,1.48t-2.67,6.24l-3.27,15.74c-.2,1-.35,1.78-.45,2.38a10.4,10.4,0,0,0-.15,1.78q0,3.86,5.64,3.86h69.48l15.74-73.64a14.18,14.18,0,0,0,.3-3.26,4.74,4.74,0,0,0-1.48-3.71q-1.49-1.34-5.64-1.34H970.91l6.83-32.66h122.92q13.06,0,18.41,4.31t5.34,13.51a63.25,63.25,0,0,1-1.48,11.58L1097.4,371.54Z"/><path class="cls-1" d="M1333.45,371.54l22.27-106c.2-.79.34-1.48.45-2.08a10.88,10.88,0,0,0,.15-1.78q0-4.45-7.42-4.45h-44.54q-4.75,0-6.83,1.63t-3,5.79L1272,371.54h-41.57l22.27-106c.19-.79.34-1.48.45-2.08a11,11,0,0,0,.15-1.78q0-4.45-7.13-4.45h-44.83q-4.45,0-6.53,1.63t-3.27,6.68l-22.27,106h-41.57l31.77-150.24h40.08L1196,237.63q10.69-16.33,29.39-16.33h50.18q11.28,0,16.92,3.86t5.94,12.47q6.83-8.61,13.66-12.47a32.7,32.7,0,0,1,16.33-3.86h50.18q11.87,0,17.52,4.31t5.64,14.1a53.45,53.45,0,0,1-1.19,11L1375,371.54Z"/><path class="cls-1" d="M1407.08,371.54l31.77-150.24h41.57l-31.77,150.24Z"/><path class="cls-1" d="M21.38,373Q10.09,373,5,368.72T0,355.8a54.21,54.21,0,0,1,1.48-11l7.42-35.63a79,79,0,0,1,4.16-14A25.08,25.08,0,0,1,19,286.32a20.13,20.13,0,0,1,8.61-4.6,48.08,48.08,0,0,1,12.17-1.34h76.31l-5.34,25.53H56.12q-4.16,0-5.94,1.48t-2.67,6.24l-3.27,15.74c-.2,1-.35,1.78-.45,2.38a10.47,10.47,0,0,0-.15,1.78q0,3.86,5.64,3.86h69.48l15.74-73.64a14.22,14.22,0,0,0,.3-3.26,4.74,4.74,0,0,0-1.48-3.71q-1.49-1.34-5.64-1.34H25.83l6.83-32.66H155.58q13.06,0,18.41,4.31t5.34,13.51a63.31,63.31,0,0,1-1.48,11.58L152.32,373Z"/><path class="cls-1" d="M302,373l3.27-16q-5.64,8.61-12.62,12.32A34.58,34.58,0,0,1,276.13,373H210.81q-11.88,0-17.67-4.16t-5.79-14a55,55,0,0,1,1.48-11.28l25.54-120.85h41.57l-22.57,106a25.7,25.7,0,0,0-.59,3.86q0,4.75,7.13,4.75h59.68q4.75,0,6.83-1.78t3.27-6.83l22.57-106h41.57L342,373Z"/><path class="cls-1" d="M400.84,373q-12.47,0-18-4.31t-5.49-13.51a63,63,0,0,1,1.48-11.58l34.44-162.71h41.57L446,222.78h36.22l-6.83,32.66H439.14l-16.33,76.9a25.71,25.71,0,0,0-.59,3.86q0,4.16,6.53,4.16h27.32L449.23,373Z"/><path class="cls-1" d="M501.79,373q-12.47,0-18-4.31t-5.49-13.51a62.94,62.94,0,0,1,1.48-11.58l19.3-91.45Q502.38,237,510,229.91t23.61-7.13H635.69q13.06,0,18.41,4.31t5.34,13.51A63.25,63.25,0,0,1,658,252.18l-19.3,91.45q-3.27,15.14-10.84,22.27T603.92,373ZM613.13,267a29.89,29.89,0,0,0,.59-3.56q0-4.75-8-4.75H546.92q-4.75,0-6.68,1.63T537.42,267l-12.77,61.16c-.2.79-.35,1.48-.45,2.08a10.47,10.47,0,0,0-.15,1.78q0,4.16,6.53,4.16h58.79q5.35,0,7.72-1.78t3.27-6.24Z"/><path class="cls-2" d="M1213.59,91.19"/><path class="cls-3" d="M1492.87,116.73c-.11-2-5.09-4.67-8.28-5.29-4.84-.95-10.05-.12-15.07-.49-23.9-1.78-48.59-.72-71.52-6.13-75.5-17.8-150.57-37.32-225.42-57.4-72.78-19.52-146.13-36-221.71-42.59Q923.56,2.43,896.24,0L821.49.43C806.12,2,790.76,3.59,775.37,5,708.78,11.06,648.17,32.13,592.81,67c-37.23,23.48-76.37,43.4-121,52.19-38.28,7.53-77.18,7.93-116,8.81-70.55,1.6-140,9.27-207.91,28.13-32.38,9-62,23.34-91.35,38.37-4.12,2.11-8.28,4.14-12.44,6.18l-2.34,7.88,0,.05h0C59,201.25,96.44,183.95,114,178c68.6-23.33,140.33-29.42,212.61-31.21,77.42-1.91,155-1.12,232-10.33,29.13-3.48,58.4-6.51,85.87-16.91,7.49-2.84,14.49-7.46,20.72-12.35,5.69-4.47,7.18-11.77,3-17.32-2.59-3.47-9.23-6.37-13.79-6.07-9.58.65-19.2,2.93-28.39,5.72-12.08,3.67-23.65,8.8-35.68,12.66-3.42,1.1-7.13,1.44-11.48,1.86a3.2,3.2,0,0,1-3.23-4.84c5.8-8.72,13.45-13.81,21.47-18.22C659.18,46.86,726,26.72,798,21.9c59.29-4,118,.7,176.36,10.06,73.53,11.79,144.89,31,215,54.46,5.2,1.74,6,4.32,5.07,8.71-2.37,11.39-15.94,23.44-30.37,24.67q-101.94,8.67-204,16.51c-62.7,4.84-125.55,9.19-188.24,14.1-2.54.2-5.19.47-7.83.73h-.95q-23.13,0-34,9.38t-14.83,29L702,248.42a39.83,39.83,0,0,0-1.31,9.6q0,10,6.76,15.92T729,279.83H847.24q8.72,0,8.72,5.67a11.43,11.43,0,0,1-.44,3.49l-4.8,21.81q-1.31,6.11-3.71,8.29t-9.38,2.18H695a10.71,10.71,0,0,0-10.49,8.54l-6,29.18A10.71,10.71,0,0,0,689,371.86H859.89q23.11,0,34-9.38t15.27-29l13.09-61.07q.43-2.18.65-4.36t.22-4.36q0-10-6.76-16.14t-22-6.11H774.84q-9.16,0-9.16-7a13.2,13.2,0,0,1,.44-3.93L770,212.22q1.31-6.54,4.36-9.16t10-2.62l600.08.49c11.23,0,14.9-15.07,4.92-20.23l-36.84-19c38.85-2.73,76.8-10.41,112.9-25.44,7.57-3.15,15.27-6.26,22.23-10.38C1490.55,124.17,1493,119.76,1492.87,116.73ZM1364.2,136.21c-11.28,5.45-25.72,5-38,7.21-7.88,1.42-17.16,5.44-17.91,15.72-.45,6.21,9.88,8.53,3.87,12.37-6.31,4-25.89,2-33.12,2l-33.43,0-69.35,0q-54.17,0-108.33-.07c-21.37,0-42.74-.16-64.11-.54-10.29-.18-29.07.46-39.35-.16-4.19-.25-32.32,1.07-27.92-5.56,2.32-3.49,36.44-5.82,39.92-6.25,11.92-1.47,28.35-2.14,40.32-3,21.3-1.59,42.63-2.72,64-4q34.53-2,69.05-4.19c18.52-1.17,43.22.84,59.92-9,4.88-2.88,31.66-35.87,27.6-39.93,0,0,0-.05,0,0l.16,0c2.51.52,50.7,12.09,50.49,12l-.41-.07c17.49,3.48,34.62,9,52.08,12.82,5.26,1.13,9.41,1.87,14.67,3,1.24.27,13.77,1.92,14.39,3C1370.32,134.13,1367.42,134.65,1364.2,136.21Z"/></g></g></svg>